<svg xmlns="http://www.w3.org/2000/svg" fill="none" viewBox="41.03 145.26 706.8 162.67">
<g opacity="0.4" filter="url(#filter0_f_57_2)">
<path d="M49.8145 305C43.9551 305 41.0254 302.07 41.0254 296.211V159.98C41.0254 154.121 43.9551 151.191 49.8145 151.191H72.959C78.8184 151.191 81.748 154.121 81.748 159.98V168.477H82.334C85.166 162.227 89.9512 157.295 96.6895 153.682C103.428 150.068 109.727 148.262 115.586 148.262C127.305 148.262 136.387 150.996 142.832 156.465C149.375 161.934 153.867 168.037 156.309 174.775H156.895C165.391 163.74 173.057 156.562 179.893 153.242C186.826 149.922 195.664 148.262 206.406 148.262C220.859 148.262 233.018 153.047 242.881 162.617C252.842 172.188 257.822 189.668 257.822 215.059V296.211C257.822 302.07 254.893 305 249.033 305H225.596C219.736 305 216.807 302.07 216.807 296.211V225.605C216.807 204.316 215.342 190.889 212.412 185.322C209.58 179.756 204.502 176.973 197.178 176.973C190.342 176.973 184.092 180.977 178.428 188.984C172.764 196.992 169.932 213.496 169.932 238.496V296.211C169.932 302.07 167.002 305 161.143 305H137.705C131.846 305 128.916 302.07 128.916 296.211V225.605C128.916 204.316 127.451 190.889 124.521 185.322C121.689 179.756 116.611 176.973 109.287 176.973C102.451 176.973 96.2012 180.977 90.5371 188.984C84.873 196.895 82.041 213.398 82.041 238.496V296.211C82.041 302.07 79.1113 305 73.252 305H49.8145ZM289.17 228.096C289.17 203.193 295.566 183.662 308.359 169.502C321.25 155.342 340.391 148.262 365.781 148.262C391.172 148.262 410.264 155.342 423.057 169.502C435.947 183.662 442.393 203.193 442.393 228.096C442.393 252.998 435.947 272.529 423.057 286.689C410.264 300.85 391.172 307.93 365.781 307.93C340.391 307.93 321.25 300.85 308.359 286.689C295.566 272.529 289.17 252.998 289.17 228.096ZM332.529 228.096C332.529 246.65 335.361 259.834 341.025 267.646C346.787 275.361 355.039 279.219 365.781 279.219C376.523 279.219 384.727 275.361 390.391 267.646C396.152 259.834 399.033 246.65 399.033 228.096C399.033 209.541 396.152 196.406 390.391 188.691C384.727 180.879 376.523 176.973 365.781 176.973C355.039 176.973 346.787 180.879 341.025 188.691C335.361 196.406 332.529 209.541 332.529 228.096ZM482.822 305C476.963 305 474.033 302.07 474.033 296.211V159.98C474.033 154.121 476.963 151.191 482.822 151.191H505.967C511.826 151.191 514.756 154.121 514.756 159.98V171.992H515.342C517.881 165.742 522.129 160.225 528.086 155.439C534.043 150.654 541.074 148.262 549.18 148.262C554.746 148.262 559.336 148.945 562.949 150.312C566.367 151.582 567.686 153.926 566.904 157.344L562.803 174.775C561.924 178.682 559.287 179.854 554.893 178.291C552.354 177.412 549.912 176.973 547.568 176.973C538.193 176.973 530.43 182.588 524.277 193.818C518.125 205.049 515.049 221.406 515.049 242.891V296.211C515.049 302.07 512.119 305 506.26 305H482.822ZM580.967 263.984C580.967 244.453 590.293 230.293 608.945 221.504C627.598 212.715 648.887 208.027 672.812 207.441V201.582C672.812 192.598 670.566 186.25 666.074 182.539C661.582 178.828 655.332 176.973 647.324 176.973C641.66 176.973 636.631 177.803 632.236 179.463C627.939 181.025 624.18 182.881 620.957 185.029C617.832 187.08 615 189.18 612.461 191.328C607.969 195.234 604.258 195.43 601.328 191.914L589.17 176.973C586.143 173.262 586.875 169.453 591.367 165.547C594.785 162.52 598.74 159.883 603.232 157.637C607.822 155.391 613.877 153.291 621.396 151.338C628.916 149.287 638.682 148.262 650.693 148.262C671.006 148.262 686.582 152.949 697.422 162.324C708.359 171.699 713.828 185.518 713.828 203.779V296.211C713.828 302.07 710.898 305 705.039 305H681.016C675.742 305 673.105 302.07 673.105 296.211V291.816H672.812C667.051 297.383 660.117 301.484 652.012 304.121C644.004 306.66 636.631 307.93 629.893 307.93C613.877 307.93 601.719 304.023 593.418 296.211C585.117 288.301 580.967 277.559 580.967 263.984ZM624.326 263.105C624.326 266.523 625.01 269.502 626.377 272.041C627.744 274.482 629.893 276.289 632.822 277.461C635.752 278.633 639.023 279.219 642.637 279.219C647.617 279.219 652.451 278.535 657.139 277.168C661.826 275.801 667.051 272.578 672.812 267.5V235.713C656.406 237.568 645.42 239.961 639.854 242.891C634.287 245.82 630.283 248.848 627.842 251.973C625.498 255.098 624.326 258.809 624.326 263.105Z" fill="#1D021B"/>
</g>
<g opacity="0.6" filter="url(#filter1_f_57_2)">
<path d="M61.8145 304C55.9551 304 53.0254 301.07 53.0254 295.211V158.98C53.0254 153.121 55.9551 150.191 61.8145 150.191H84.959C90.8184 150.191 93.748 153.121 93.748 158.98V167.477H94.334C97.166 161.227 101.951 156.295 108.689 152.682C115.428 149.068 121.727 147.262 127.586 147.262C139.305 147.262 148.387 149.996 154.832 155.465C161.375 160.934 165.867 167.037 168.309 173.775H168.895C177.391 162.74 185.057 155.562 191.893 152.242C198.826 148.922 207.664 147.262 218.406 147.262C232.859 147.262 245.018 152.047 254.881 161.617C264.842 171.188 269.822 188.668 269.822 214.059V295.211C269.822 301.07 266.893 304 261.033 304H237.596C231.736 304 228.807 301.07 228.807 295.211V224.605C228.807 203.316 227.342 189.889 224.412 184.322C221.58 178.756 216.502 175.973 209.178 175.973C202.342 175.973 196.092 179.977 190.428 187.984C184.764 195.992 181.932 212.496 181.932 237.496V295.211C181.932 301.07 179.002 304 173.143 304H149.705C143.846 304 140.916 301.07 140.916 295.211V224.605C140.916 203.316 139.451 189.889 136.521 184.322C133.689 178.756 128.611 175.973 121.287 175.973C114.451 175.973 108.201 179.977 102.537 187.984C96.873 195.895 94.041 212.398 94.041 237.496V295.211C94.041 301.07 91.1113 304 85.252 304H61.8145ZM301.17 227.096C301.17 202.193 307.566 182.662 320.359 168.502C333.25 154.342 352.391 147.262 377.781 147.262C403.172 147.262 422.264 154.342 435.057 168.502C447.947 182.662 454.393 202.193 454.393 227.096C454.393 251.998 447.947 271.529 435.057 285.689C422.264 299.85 403.172 306.93 377.781 306.93C352.391 306.93 333.25 299.85 320.359 285.689C307.566 271.529 301.17 251.998 301.17 227.096ZM344.529 227.096C344.529 245.65 347.361 258.834 353.025 266.646C358.787 274.361 367.039 278.219 377.781 278.219C388.523 278.219 396.727 274.361 402.391 266.646C408.152 258.834 411.033 245.65 411.033 227.096C411.033 208.541 408.152 195.406 402.391 187.691C396.727 179.879 388.523 175.973 377.781 175.973C367.039 175.973 358.787 179.879 353.025 187.691C347.361 195.406 344.529 208.541 344.529 227.096ZM494.822 304C488.963 304 486.033 301.07 486.033 295.211V158.98C486.033 153.121 488.963 150.191 494.822 150.191H517.967C523.826 150.191 526.756 153.121 526.756 158.98V170.992H527.342C529.881 164.742 534.129 159.225 540.086 154.439C546.043 149.654 553.074 147.262 561.18 147.262C566.746 147.262 571.336 147.945 574.949 149.312C578.367 150.582 579.686 152.926 578.904 156.344L574.803 173.775C573.924 177.682 571.287 178.854 566.893 177.291C564.354 176.412 561.912 175.973 559.568 175.973C550.193 175.973 542.43 181.588 536.277 192.818C530.125 204.049 527.049 220.406 527.049 241.891V295.211C527.049 301.07 524.119 304 518.26 304H494.822ZM592.967 262.984C592.967 243.453 602.293 229.293 620.945 220.504C639.598 211.715 660.887 207.027 684.812 206.441V200.582C684.812 191.598 682.566 185.25 678.074 181.539C673.582 177.828 667.332 175.973 659.324 175.973C653.66 175.973 648.631 176.803 644.236 178.463C639.939 180.025 636.18 181.881 632.957 184.029C629.832 186.08 627 188.18 624.461 190.328C619.969 194.234 616.258 194.43 613.328 190.914L601.17 175.973C598.143 172.262 598.875 168.453 603.367 164.547C606.785 161.52 610.74 158.883 615.232 156.637C619.822 154.391 625.877 152.291 633.396 150.338C640.916 148.287 650.682 147.262 662.693 147.262C683.006 147.262 698.582 151.949 709.422 161.324C720.359 170.699 725.828 184.518 725.828 202.779V295.211C725.828 301.07 722.898 304 717.039 304H693.016C687.742 304 685.105 301.07 685.105 295.211V290.816H684.812C679.051 296.383 672.117 300.484 664.012 303.121C656.004 305.66 648.631 306.93 641.893 306.93C625.877 306.93 613.719 303.023 605.418 295.211C597.117 287.301 592.967 276.559 592.967 262.984ZM636.326 262.105C636.326 265.523 637.01 268.502 638.377 271.041C639.744 273.482 641.893 275.289 644.822 276.461C647.752 277.633 651.023 278.219 654.637 278.219C659.617 278.219 664.451 277.535 669.139 276.168C673.826 274.801 679.051 271.578 684.812 266.5V234.713C668.406 236.568 657.42 238.961 651.854 241.891C646.287 244.82 642.283 247.848 639.842 250.973C637.498 254.098 636.326 257.809 636.326 262.105Z" fill="#1D021B"/>
</g>
<g opacity="0.8" filter="url(#filter2_f_57_2)">
<path d="M72.8145 302C66.9551 302 64.0254 299.07 64.0254 293.211V156.98C64.0254 151.121 66.9551 148.191 72.8145 148.191H95.959C101.818 148.191 104.748 151.121 104.748 156.98V165.477H105.334C108.166 159.227 112.951 154.295 119.689 150.682C126.428 147.068 132.727 145.262 138.586 145.262C150.305 145.262 159.387 147.996 165.832 153.465C172.375 158.934 176.867 165.037 179.309 171.775H179.895C188.391 160.74 196.057 153.562 202.893 150.242C209.826 146.922 218.664 145.262 229.406 145.262C243.859 145.262 256.018 150.047 265.881 159.617C275.842 169.188 280.822 186.668 280.822 212.059V293.211C280.822 299.07 277.893 302 272.033 302H248.596C242.736 302 239.807 299.07 239.807 293.211V222.605C239.807 201.316 238.342 187.889 235.412 182.322C232.58 176.756 227.502 173.973 220.178 173.973C213.342 173.973 207.092 177.977 201.428 185.984C195.764 193.992 192.932 210.496 192.932 235.496V293.211C192.932 299.07 190.002 302 184.143 302H160.705C154.846 302 151.916 299.07 151.916 293.211V222.605C151.916 201.316 150.451 187.889 147.521 182.322C144.689 176.756 139.611 173.973 132.287 173.973C125.451 173.973 119.201 177.977 113.537 185.984C107.873 193.895 105.041 210.398 105.041 235.496V293.211C105.041 299.07 102.111 302 96.252 302H72.8145ZM312.17 225.096C312.17 200.193 318.566 180.662 331.359 166.502C344.25 152.342 363.391 145.262 388.781 145.262C414.172 145.262 433.264 152.342 446.057 166.502C458.947 180.662 465.393 200.193 465.393 225.096C465.393 249.998 458.947 269.529 446.057 283.689C433.264 297.85 414.172 304.93 388.781 304.93C363.391 304.93 344.25 297.85 331.359 283.689C318.566 269.529 312.17 249.998 312.17 225.096ZM355.529 225.096C355.529 243.65 358.361 256.834 364.025 264.646C369.787 272.361 378.039 276.219 388.781 276.219C399.523 276.219 407.727 272.361 413.391 264.646C419.152 256.834 422.033 243.65 422.033 225.096C422.033 206.541 419.152 193.406 413.391 185.691C407.727 177.879 399.523 173.973 388.781 173.973C378.039 173.973 369.787 177.879 364.025 185.691C358.361 193.406 355.529 206.541 355.529 225.096ZM505.822 302C499.963 302 497.033 299.07 497.033 293.211V156.98C497.033 151.121 499.963 148.191 505.822 148.191H528.967C534.826 148.191 537.756 151.121 537.756 156.98V168.992H538.342C540.881 162.742 545.129 157.225 551.086 152.439C557.043 147.654 564.074 145.262 572.18 145.262C577.746 145.262 582.336 145.945 585.949 147.312C589.367 148.582 590.686 150.926 589.904 154.344L585.803 171.775C584.924 175.682 582.287 176.854 577.893 175.291C575.354 174.412 572.912 173.973 570.568 173.973C561.193 173.973 553.43 179.588 547.277 190.818C541.125 202.049 538.049 218.406 538.049 239.891V293.211C538.049 299.07 535.119 302 529.26 302H505.822ZM603.967 260.984C603.967 241.453 613.293 227.293 631.945 218.504C650.598 209.715 671.887 205.027 695.812 204.441V198.582C695.812 189.598 693.566 183.25 689.074 179.539C684.582 175.828 678.332 173.973 670.324 173.973C664.66 173.973 659.631 174.803 655.236 176.463C650.939 178.025 647.18 179.881 643.957 182.029C640.832 184.08 638 186.18 635.461 188.328C630.969 192.234 627.258 192.43 624.328 188.914L612.17 173.973C609.143 170.262 609.875 166.453 614.367 162.547C617.785 159.52 621.74 156.883 626.232 154.637C630.822 152.391 636.877 150.291 644.396 148.338C651.916 146.287 661.682 145.262 673.693 145.262C694.006 145.262 709.582 149.949 720.422 159.324C731.359 168.699 736.828 182.518 736.828 200.779V293.211C736.828 299.07 733.898 302 728.039 302H704.016C698.742 302 696.105 299.07 696.105 293.211V288.816H695.812C690.051 294.383 683.117 298.484 675.012 301.121C667.004 303.66 659.631 304.93 652.893 304.93C636.877 304.93 624.719 301.023 616.418 293.211C608.117 285.301 603.967 274.559 603.967 260.984ZM647.326 260.105C647.326 263.523 648.01 266.502 649.377 269.041C650.744 271.482 652.893 273.289 655.822 274.461C658.752 275.633 662.023 276.219 665.637 276.219C670.617 276.219 675.451 275.535 680.139 274.168C684.826 272.801 690.051 269.578 695.812 264.5V232.713C679.406 234.568 668.42 236.961 662.854 239.891C657.287 242.82 653.283 245.848 650.842 248.973C648.498 252.098 647.326 255.809 647.326 260.105Z" fill="#1D021B"/>
</g>
<path d="M83.8145 302C77.9551 302 75.0254 299.07 75.0254 293.211V156.98C75.0254 151.121 77.9551 148.191 83.8145 148.191H106.959C112.818 148.191 115.748 151.121 115.748 156.98V165.477H116.334C119.166 159.227 123.951 154.295 130.689 150.682C137.428 147.068 143.727 145.262 149.586 145.262C161.305 145.262 170.387 147.996 176.832 153.465C183.375 158.934 187.867 165.037 190.309 171.775H190.895C199.391 160.74 207.057 153.562 213.893 150.242C220.826 146.922 229.664 145.262 240.406 145.262C254.859 145.262 267.018 150.047 276.881 159.617C286.842 169.188 291.822 186.668 291.822 212.059V293.211C291.822 299.07 288.893 302 283.033 302H259.596C253.736 302 250.807 299.07 250.807 293.211V222.605C250.807 201.316 249.342 187.889 246.412 182.322C243.58 176.756 238.502 173.973 231.178 173.973C224.342 173.973 218.092 177.977 212.428 185.984C206.764 193.992 203.932 210.496 203.932 235.496V293.211C203.932 299.07 201.002 302 195.143 302H171.705C165.846 302 162.916 299.07 162.916 293.211V222.605C162.916 201.316 161.451 187.889 158.521 182.322C155.689 176.756 150.611 173.973 143.287 173.973C136.451 173.973 130.201 177.977 124.537 185.984C118.873 193.895 116.041 210.398 116.041 235.496V293.211C116.041 299.07 113.111 302 107.252 302H83.8145ZM323.17 225.096C323.17 200.193 329.566 180.662 342.359 166.502C355.25 152.342 374.391 145.262 399.781 145.262C425.172 145.262 444.264 152.342 457.057 166.502C469.947 180.662 476.393 200.193 476.393 225.096C476.393 249.998 469.947 269.529 457.057 283.689C444.264 297.85 425.172 304.93 399.781 304.93C374.391 304.93 355.25 297.85 342.359 283.689C329.566 269.529 323.17 249.998 323.17 225.096ZM366.529 225.096C366.529 243.65 369.361 256.834 375.025 264.646C380.787 272.361 389.039 276.219 399.781 276.219C410.523 276.219 418.727 272.361 424.391 264.646C430.152 256.834 433.033 243.65 433.033 225.096C433.033 206.541 430.152 193.406 424.391 185.691C418.727 177.879 410.523 173.973 399.781 173.973C389.039 173.973 380.787 177.879 375.025 185.691C369.361 193.406 366.529 206.541 366.529 225.096ZM516.822 302C510.963 302 508.033 299.07 508.033 293.211V156.98C508.033 151.121 510.963 148.191 516.822 148.191H539.967C545.826 148.191 548.756 151.121 548.756 156.98V168.992H549.342C551.881 162.742 556.129 157.225 562.086 152.439C568.043 147.654 575.074 145.262 583.18 145.262C588.746 145.262 593.336 145.945 596.949 147.312C600.367 148.582 601.686 150.926 600.904 154.344L596.803 171.775C595.924 175.682 593.287 176.854 588.893 175.291C586.354 174.412 583.912 173.973 581.568 173.973C572.193 173.973 564.43 179.588 558.277 190.818C552.125 202.049 549.049 218.406 549.049 239.891V293.211C549.049 299.07 546.119 302 540.26 302H516.822ZM614.967 260.984C614.967 241.453 624.293 227.293 642.945 218.504C661.598 209.715 682.887 205.027 706.812 204.441V198.582C706.812 189.598 704.566 183.25 700.074 179.539C695.582 175.828 689.332 173.973 681.324 173.973C675.66 173.973 670.631 174.803 666.236 176.463C661.939 178.025 658.18 179.881 654.957 182.029C651.832 184.08 649 186.18 646.461 188.328C641.969 192.234 638.258 192.43 635.328 188.914L623.17 173.973C620.143 170.262 620.875 166.453 625.367 162.547C628.785 159.52 632.74 156.883 637.232 154.637C641.822 152.391 647.877 150.291 655.396 148.338C662.916 146.287 672.682 145.262 684.693 145.262C705.006 145.262 720.582 149.949 731.422 159.324C742.359 168.699 747.828 182.518 747.828 200.779V293.211C747.828 299.07 744.898 302 739.039 302H715.016C709.742 302 707.105 299.07 707.105 293.211V288.816H706.812C701.051 294.383 694.117 298.484 686.012 301.121C678.004 303.66 670.631 304.93 663.893 304.93C647.877 304.93 635.719 301.023 627.418 293.211C619.117 285.301 614.967 274.559 614.967 260.984ZM658.326 260.105C658.326 263.523 659.01 266.502 660.377 269.041C661.744 271.482 663.893 273.289 666.822 274.461C669.752 275.633 673.023 276.219 676.637 276.219C681.617 276.219 686.451 275.535 691.139 274.168C695.826 272.801 701.051 269.578 706.812 264.5V232.713C690.406 234.568 679.42 236.961 673.854 239.891C668.287 242.82 664.283 245.848 661.842 248.973C659.498 252.098 658.326 255.809 658.326 260.105Z" fill="#D814CE"/>
<defs>
<filter id="filter0_f_57_2" x="39.0254" y="146.262" width="676.803" height="163.668" filterUnits="userSpaceOnUse" color-interpolation-filters="sRGB">
<feFlood flood-opacity="0" result="BackgroundImageFix"/>
<feBlend mode="normal" in="SourceGraphic" in2="BackgroundImageFix" result="shape"/>
<feGaussianBlur stdDeviation="1" result="effect1_foregroundBlur_57_2"/>
</filter>
<filter id="filter1_f_57_2" x="51.0254" y="145.262" width="676.803" height="163.668" filterUnits="userSpaceOnUse" color-interpolation-filters="sRGB">
<feFlood flood-opacity="0" result="BackgroundImageFix"/>
<feBlend mode="normal" in="SourceGraphic" in2="BackgroundImageFix" result="shape"/>
<feGaussianBlur stdDeviation="1" result="effect1_foregroundBlur_57_2"/>
</filter>
<filter id="filter2_f_57_2" x="62.0254" y="143.262" width="676.803" height="163.668" filterUnits="userSpaceOnUse" color-interpolation-filters="sRGB">
<feFlood flood-opacity="0" result="BackgroundImageFix"/>
<feBlend mode="normal" in="SourceGraphic" in2="BackgroundImageFix" result="shape"/>
<feGaussianBlur stdDeviation="1" result="effect1_foregroundBlur_57_2"/>
</filter>
</defs>
</svg>